inDegrees=yes
name=ik_Xsens
DataType=double
version=3
OpenSimVersion=4.4-2022-07-23-0e9fedc
endheader
time	pelvis_tilt	pelvis_list	pelvis_rotation	pelvis_tx	pelvis_ty	pelvis_tz	hip_flexion_r	hip_adduction_r	hip_rotation_r	knee_angle_r	knee_angle_r_beta	ankle_angle_r	subtalar_angle_r	mtp_angle_r	hip_flexion_l	hip_adduction_l	hip_rotation_l	knee_angle_l	knee_angle_l_beta	ankle_angle_l	subtalar_angle_l	mtp_angle_l	lumbar_extension	lumbar_bending	lumbar_rotation	arm_flex_r	arm_add_r	arm_rot_r	elbow_flex_r	pro_sup_r	wrist_flex_r	wrist_dev_r	arm_flex_l	arm_add_l	arm_rot_l	elbow_flex_l	pro_sup_l	wrist_flex_l	wrist_dev_l
35.26666666666667	0	0	0	0	0.93	0	0	0	0	0	2.591397663846081e-41	0	0	0	0	0	0	0	2.591397663846081e-41	0	0	0	0	0	0	31.02766275261461	13.22918929070152	-4.236735081088041	-465.2682971193401	-436.8939813981132	0	0	53.13528097404028	-40.03313728276634	-10.90762107461891	-275.3577189890914	-326.1247916801058	0	0
35.28333333333333	0	0	0	0	0.93	0	0	0	0	0	0	0	0	0	0	0	0	0	0	0	0	0	0	0	0	30.88270628499493	13.18843354054499	-4.358065338284784	-465.2195114117607	-437.0675542602817	0	0	53.15110533774657	-40.05316122587242	-10.97838240798075	-275.2565615386143	-325.973219238434	0	0
35.3	0	0	0	0	0.93	0	0	0	0	0	0	0	0	0	0	0	0	0	0	0	0	0	0	0	0	30.76813566725682	13.12560578854949	-4.471625575721051	-465.2581326204397	-437.476892427958	0	0	53.12883500903597	-40.04412712252831	-11.07808861259682	-275.2408326899316	-325.8171657978809	0	0
35.31666666666666	0	0	0	0	0.93	0	0	0	0	0	0	0	0	0	0	0	0	0	0	0	0	0	0	0	0	30.61771243734072	13.07787458997267	-4.449785716032485	-465.1716387933997	-437.7443887418793	0	0	53.15949902808873	-40.03288814629768	-11.07102838982717	-275.4192959199755	-325.5489375959277	0	0
35.33333333333334	0	0	0	0	0.93	0	0	0	0	3.660639443052413e-39	1.836709923159824e-40	0	0	0	0	0	0	3.660639443052413e-39	1.836709923159824e-40	0	0	0	0	0	0	30.48840598663705	13.02135111658569	-4.314180437871562	-465.1174684554868	-437.9538117890758	0	0	53.22332296538887	-40.07614782577537	-10.97050010901133	-275.8735581556595	-325.2723831294365	0	0
35.35	0	0	0	0	0.93	0	0	0	0	5.862881000864724e-39	1.836709923159824e-40	0	0	0	0	0	0	5.862881000864724e-39	1.836709923159824e-40	0	0	0	0	0	0	30.34564454388396	12.78991513878055	-4.338223185080966	-465.0086903925894	-438.2098421132039	0	0	53.48115907917319	-40.12618114298989	-10.649253510871	-276.3902162931977	-325.3469993892676	0	0
35.36666666666667	-4.629122485371505e-28	1.751438019066303e-26	2.769289881569798e-27	5.428733327075993e-28	0.93	1.227099041829036e-29	-2.570105560380396e-34	9.611580971697916e-28	-1.341039425431189e-26	8.498234610152169e-15	1.483221708466979e-16	-2.802712531436567e-21	-4.202824039252351e-20	8.14593406842453e-21	-1.593804718568382e-19	-2.680458309061937e-17	1.32064449984598e-17	8.486228661914035e-15	1.481126317514847e-16	-5.676199072542553e-21	-3.853260503411948e-21	-9.53068721585387e-22	-4.89165665847432e-18	-3.490825095180872e-17	-2.029470891594059e-18	30.76641953061845	11.70532562332172	-3.712201145898628	-465.3111220645443	-437.2048778412349	-1.700376644494194e-23	-8.606548063841612e-23	53.85009193467139	-40.2414589779783	-10.32009003344113	-277.4597450505821	-325.1268112354716	5.341314092452249e-23	2.776965008355277e-26
35.38333333333333	8.404445281757433e-24	1.506598339347174e-13	8.371917217424547e-24	7.082533809204648e-24	0.93	5.945570819577289e-24	1.831943531905584e-34	1.916850287959549e-22	-6.215853836606459e-34	1.371976720528943e-15	2.394551064721308e-17	8.748732008001757e-18	1.131016392571425e-18	-6.731779376018883e-14	-3.396335914794508e-22	1.778062839790713e-33	-8.950759577113566e-21	1.32559615779035e-15	2.31360770508062e-17	-6.068841464658987e-19	-1.813370831057052e-23	-5.526855991457413e-14	8.969314851735203e-24	2.090805278965337e-23	1.204246286130531e-23	31.21816833288365	9.535083630159555	-4.272736047226128	-465.4613032117746	-435.6252445272499	-1.587642753742761e-16	-5.391062347369245e-14	54.12586431573538	-40.34966609168048	-10.13944888195682	-278.0126069696935	-324.8302929570505	6.186726512462574e-17	-1.457894135980453e-14
35.4	0	0	0	0	0.93	0	0	0	0	0	0	0	0	0	0	0	0	0	0	0	0	0	0	0	0	31.74309192575543	6.21358651061312	-7.218715517371895	-465.5500891191167	-433.8908608258628	0	0	54.44979397876198	-40.60576513040436	-10.46949441159463	-279.0086680047924	-323.9220707748012	0	0
35.41666666666666	0	0	0	0	0.93	0	0	0	0	0	0	0	0	0	0	0	0	0	0	0	0	0	0	0	0	32.33185341173613	3.448391196198933	-10.24926896036346	-465.8327232277152	-432.7274785957711	0	0	54.81086161630241	-41.06320863421701	-11.30121550963028	-281.2603007168943	-322.3238771883517	0	0
35.43333333333333	0	0	0	0	0.93	0	0	0	0	0	0	0	0	0	0	0	0	0	0	0	0	0	0	0	0	33.50136957179497	-1.771568191945162	-14.88383077510267	-466.3326750704333	-430.4649311070992	0	0	55.1673450266652	-41.54560869086949	-11.99904764975192	-283.4626520618695	-320.9426826215438	0	0
35.45	0	0	0	0	0.93	0	0	0	0	0	-1.836709923159824e-40	0	0	0	0	0	0	5.261786339342783e-39	0	0	0	0	0	0	0	34.25218222668452	-8.719101209865489	-18.11439739662855	-465.8531896168826	-425.346180723809	0	0	55.55434427694045	-42.62910322676554	-13.58087254712637	-287.5752906104352	-318.8008160521402	0	0
35.46666666666667	0	0	0	0	0.93	0	0	0	0	0	0	0	0	0	0	0	0	0	0	0	0	0	0	0	0	34.8065230978277	-13.82822066711003	-19.60916817383756	-465.3904964502248	-421.1528075054933	0	0	55.87027328596709	-44.17517299591167	-15.43020311762292	-292.2642310061435	-317.2736121171488	0	0
